<mxfile host="app.diagrams.net" agent="Mozilla/5.0 (Windows NT 10.0; Win64; x64) AppleWebKit/537.36 (KHTML, like Gecko) Chrome/131.0.0.0 Safari/537.36 Edg/131.0.0.0" version="26.0.5">
  <diagram name="Trang-1" id="kFHEVkmpW3Sa6rWo8aTI">
    <mxGraphModel dx="2658" dy="1976" grid="1" gridSize="10" guides="1" tooltips="1" connect="1" arrows="1" fold="1" page="1" pageScale="1" pageWidth="827" pageHeight="1169" math="0" shadow="0">
      <root>
        <mxCell id="0" />
        <mxCell id="1" parent="0" />
        <mxCell id="-_Fv_5JTiqjVCxgQ4m37-1" value="Thuốc" style="rounded=1;arcSize=10;whiteSpace=wrap;html=1;align=center;" parent="1" vertex="1">
          <mxGeometry x="-60" y="-70" width="100" height="40" as="geometry" />
        </mxCell>
        <mxCell id="-_Fv_5JTiqjVCxgQ4m37-2" value="Công ty dược phẩm&amp;nbsp;" style="rounded=1;arcSize=10;whiteSpace=wrap;html=1;align=center;" parent="1" vertex="1">
          <mxGeometry x="-110" y="410" width="100" height="40" as="geometry" />
        </mxCell>
        <mxCell id="-_Fv_5JTiqjVCxgQ4m37-3" value="Hiệu thuốc&amp;nbsp;" style="rounded=1;arcSize=10;whiteSpace=wrap;html=1;align=center;" parent="1" vertex="1">
          <mxGeometry x="550" y="-70" width="100" height="40" as="geometry" />
        </mxCell>
        <mxCell id="-_Fv_5JTiqjVCxgQ4m37-6" value="" style="endArrow=none;html=1;rounded=0;exitX=0.692;exitY=0.925;exitDx=0;exitDy=0;entryX=1;entryY=0;entryDx=0;entryDy=0;exitPerimeter=0;" parent="1" source="-_Fv_5JTiqjVCxgQ4m37-7" target="-_Fv_5JTiqjVCxgQ4m37-3" edge="1">
          <mxGeometry width="50" height="50" relative="1" as="geometry">
            <mxPoint x="130" y="320" as="sourcePoint" />
            <mxPoint x="180" y="270" as="targetPoint" />
          </mxGeometry>
        </mxCell>
        <mxCell id="-_Fv_5JTiqjVCxgQ4m37-7" value="Mã hiệu thuốc" style="ellipse;whiteSpace=wrap;html=1;align=center;fontStyle=4;" parent="1" vertex="1">
          <mxGeometry x="680" y="-170" width="100" height="40" as="geometry" />
        </mxCell>
        <mxCell id="-_Fv_5JTiqjVCxgQ4m37-10" value="Bệnh nhân&amp;nbsp;" style="rounded=1;arcSize=10;whiteSpace=wrap;html=1;align=center;" parent="1" vertex="1">
          <mxGeometry x="552.5" y="520" width="100" height="40" as="geometry" />
        </mxCell>
        <mxCell id="-_Fv_5JTiqjVCxgQ4m37-25" value="Sản xuất&amp;nbsp;" style="shape=rhombus;perimeter=rhombusPerimeter;whiteSpace=wrap;html=1;align=center;" parent="1" vertex="1">
          <mxGeometry x="-100" y="195" width="80" height="40" as="geometry" />
        </mxCell>
        <mxCell id="-_Fv_5JTiqjVCxgQ4m37-34" value="" style="endArrow=none;html=1;rounded=0;exitX=0.5;exitY=1;exitDx=0;exitDy=0;entryX=0.5;entryY=0;entryDx=0;entryDy=0;" parent="1" source="-_Fv_5JTiqjVCxgQ4m37-25" target="-_Fv_5JTiqjVCxgQ4m37-2" edge="1">
          <mxGeometry relative="1" as="geometry">
            <mxPoint x="160" y="230" as="sourcePoint" />
            <mxPoint x="320" y="230" as="targetPoint" />
          </mxGeometry>
        </mxCell>
        <mxCell id="-_Fv_5JTiqjVCxgQ4m37-35" value="1,1" style="resizable=0;html=1;whiteSpace=wrap;align=right;verticalAlign=bottom;" parent="-_Fv_5JTiqjVCxgQ4m37-34" connectable="0" vertex="1">
          <mxGeometry x="1" relative="1" as="geometry">
            <mxPoint x="-10" as="offset" />
          </mxGeometry>
        </mxCell>
        <mxCell id="-_Fv_5JTiqjVCxgQ4m37-38" value="" style="shape=link;html=1;rounded=0;entryX=0;entryY=1;entryDx=0;entryDy=0;exitX=0.5;exitY=0;exitDx=0;exitDy=0;" parent="1" source="-_Fv_5JTiqjVCxgQ4m37-25" target="-_Fv_5JTiqjVCxgQ4m37-1" edge="1">
          <mxGeometry relative="1" as="geometry">
            <mxPoint x="160" y="230" as="sourcePoint" />
            <mxPoint x="320" y="230" as="targetPoint" />
          </mxGeometry>
        </mxCell>
        <mxCell id="-_Fv_5JTiqjVCxgQ4m37-39" value="1,N" style="resizable=0;html=1;whiteSpace=wrap;align=right;verticalAlign=middle;rotation=0;" parent="-_Fv_5JTiqjVCxgQ4m37-38" connectable="0" vertex="1">
          <mxGeometry x="1" relative="1" as="geometry">
            <mxPoint x="-10" y="10" as="offset" />
          </mxGeometry>
        </mxCell>
        <mxCell id="-_Fv_5JTiqjVCxgQ4m37-40" value="Tiếp thị&amp;nbsp;" style="shape=rhombus;perimeter=rhombusPerimeter;whiteSpace=wrap;html=1;align=center;" parent="1" vertex="1">
          <mxGeometry x="-170" y="150" width="80" height="45" as="geometry" />
        </mxCell>
        <mxCell id="-_Fv_5JTiqjVCxgQ4m37-43" value="" style="endArrow=none;html=1;rounded=0;exitX=0.5;exitY=1;exitDx=0;exitDy=0;entryX=0;entryY=0.5;entryDx=0;entryDy=0;" parent="1" source="-_Fv_5JTiqjVCxgQ4m37-40" target="-_Fv_5JTiqjVCxgQ4m37-2" edge="1">
          <mxGeometry relative="1" as="geometry">
            <mxPoint x="160" y="230" as="sourcePoint" />
            <mxPoint x="120" y="280" as="targetPoint" />
            <Array as="points">
              <mxPoint x="-130" y="430" />
            </Array>
          </mxGeometry>
        </mxCell>
        <mxCell id="-_Fv_5JTiqjVCxgQ4m37-44" value="1" style="resizable=0;html=1;whiteSpace=wrap;align=right;verticalAlign=bottom;" parent="-_Fv_5JTiqjVCxgQ4m37-43" connectable="0" vertex="1">
          <mxGeometry x="1" relative="1" as="geometry">
            <mxPoint as="offset" />
          </mxGeometry>
        </mxCell>
        <mxCell id="-_Fv_5JTiqjVCxgQ4m37-47" value="" style="endArrow=none;html=1;rounded=0;exitX=0.5;exitY=0;exitDx=0;exitDy=0;entryX=0;entryY=0.5;entryDx=0;entryDy=0;edgeStyle=orthogonalEdgeStyle;" parent="1" source="-_Fv_5JTiqjVCxgQ4m37-40" target="-_Fv_5JTiqjVCxgQ4m37-1" edge="1">
          <mxGeometry relative="1" as="geometry">
            <mxPoint x="-10" y="70" as="sourcePoint" />
            <mxPoint x="150" y="70" as="targetPoint" />
          </mxGeometry>
        </mxCell>
        <mxCell id="-_Fv_5JTiqjVCxgQ4m37-48" value="1" style="resizable=0;html=1;whiteSpace=wrap;align=right;verticalAlign=bottom;" parent="-_Fv_5JTiqjVCxgQ4m37-47" connectable="0" vertex="1">
          <mxGeometry x="1" relative="1" as="geometry" />
        </mxCell>
        <mxCell id="-_Fv_5JTiqjVCxgQ4m37-50" value="" style="endArrow=none;html=1;rounded=0;entryX=0;entryY=0.5;entryDx=0;entryDy=0;exitX=1;exitY=0.5;exitDx=0;exitDy=0;" parent="1" source="-_Fv_5JTiqjVCxgQ4m37-86" target="-_Fv_5JTiqjVCxgQ4m37-3" edge="1">
          <mxGeometry relative="1" as="geometry">
            <mxPoint x="414.0000000000002" y="40" as="sourcePoint" />
            <mxPoint x="470" y="70" as="targetPoint" />
          </mxGeometry>
        </mxCell>
        <mxCell id="-_Fv_5JTiqjVCxgQ4m37-51" value="N,M" style="resizable=0;html=1;whiteSpace=wrap;align=right;verticalAlign=bottom;" parent="-_Fv_5JTiqjVCxgQ4m37-50" connectable="0" vertex="1">
          <mxGeometry x="1" relative="1" as="geometry">
            <mxPoint x="-10" as="offset" />
          </mxGeometry>
        </mxCell>
        <mxCell id="-_Fv_5JTiqjVCxgQ4m37-52" value="" style="endArrow=none;html=1;rounded=0;entryX=0.75;entryY=0;entryDx=0;entryDy=0;exitX=0;exitY=0.5;exitDx=0;exitDy=0;" parent="1" source="-_Fv_5JTiqjVCxgQ4m37-86" target="-_Fv_5JTiqjVCxgQ4m37-1" edge="1">
          <mxGeometry relative="1" as="geometry">
            <mxPoint x="324" y="40" as="sourcePoint" />
            <mxPoint x="470" y="70" as="targetPoint" />
          </mxGeometry>
        </mxCell>
        <mxCell id="-_Fv_5JTiqjVCxgQ4m37-53" value="1,N" style="resizable=0;html=1;whiteSpace=wrap;align=right;verticalAlign=bottom;" parent="-_Fv_5JTiqjVCxgQ4m37-52" connectable="0" vertex="1">
          <mxGeometry x="1" relative="1" as="geometry">
            <mxPoint x="30" as="offset" />
          </mxGeometry>
        </mxCell>
        <mxCell id="-_Fv_5JTiqjVCxgQ4m37-56" value="" style="edgeStyle=orthogonalEdgeStyle;rounded=0;orthogonalLoop=1;jettySize=auto;html=1;exitX=1;exitY=0;exitDx=0;exitDy=0;entryX=0.5;entryY=1;entryDx=0;entryDy=0;strokeColor=none;" parent="1" source="-_Fv_5JTiqjVCxgQ4m37-93" target="-_Fv_5JTiqjVCxgQ4m37-8" edge="1">
          <mxGeometry relative="1" as="geometry">
            <mxPoint x="165.35533905932743" y="355.85786437626916" as="sourcePoint" />
            <mxPoint x="600" y="60" as="targetPoint" />
          </mxGeometry>
        </mxCell>
        <mxCell id="-_Fv_5JTiqjVCxgQ4m37-8" value="Đơn thuốc&amp;nbsp;" style="rounded=1;arcSize=10;whiteSpace=wrap;html=1;align=center;" parent="1" vertex="1">
          <mxGeometry x="547.5" y="100" width="100" height="40" as="geometry" />
        </mxCell>
        <mxCell id="-_Fv_5JTiqjVCxgQ4m37-58" value="" style="edgeStyle=orthogonalEdgeStyle;rounded=0;orthogonalLoop=1;jettySize=auto;html=1;exitX=1;exitY=0;exitDx=0;exitDy=0;entryX=0.5;entryY=1;entryDx=0;entryDy=0;strokeColor=none;" parent="1" source="-_Fv_5JTiqjVCxgQ4m37-8" edge="1">
          <mxGeometry relative="1" as="geometry">
            <mxPoint x="650" y="160" as="sourcePoint" />
            <mxPoint x="565" y="140" as="targetPoint" />
          </mxGeometry>
        </mxCell>
        <mxCell id="-_Fv_5JTiqjVCxgQ4m37-59" value="" style="endArrow=none;html=1;rounded=0;entryX=0;entryY=0.5;entryDx=0;entryDy=0;exitX=1;exitY=0.5;exitDx=0;exitDy=0;" parent="1" source="-_Fv_5JTiqjVCxgQ4m37-87" target="-_Fv_5JTiqjVCxgQ4m37-8" edge="1">
          <mxGeometry relative="1" as="geometry">
            <mxPoint x="414.0000000000002" y="155" as="sourcePoint" />
            <mxPoint x="470" y="70" as="targetPoint" />
          </mxGeometry>
        </mxCell>
        <mxCell id="-_Fv_5JTiqjVCxgQ4m37-60" value="M" style="resizable=0;html=1;whiteSpace=wrap;align=right;verticalAlign=bottom;" parent="-_Fv_5JTiqjVCxgQ4m37-59" connectable="0" vertex="1">
          <mxGeometry x="1" relative="1" as="geometry">
            <mxPoint x="-10" y="-8" as="offset" />
          </mxGeometry>
        </mxCell>
        <mxCell id="-_Fv_5JTiqjVCxgQ4m37-61" value="" style="endArrow=none;html=1;rounded=0;entryX=1;entryY=0.5;entryDx=0;entryDy=0;exitX=0;exitY=0.5;exitDx=0;exitDy=0;" parent="1" source="-_Fv_5JTiqjVCxgQ4m37-87" target="-_Fv_5JTiqjVCxgQ4m37-1" edge="1">
          <mxGeometry relative="1" as="geometry">
            <mxPoint x="334" y="155" as="sourcePoint" />
            <mxPoint x="470" y="70" as="targetPoint" />
          </mxGeometry>
        </mxCell>
        <mxCell id="-_Fv_5JTiqjVCxgQ4m37-62" value="N" style="resizable=0;html=1;whiteSpace=wrap;align=right;verticalAlign=bottom;" parent="-_Fv_5JTiqjVCxgQ4m37-61" connectable="0" vertex="1">
          <mxGeometry x="1" relative="1" as="geometry">
            <mxPoint x="46" y="10" as="offset" />
          </mxGeometry>
        </mxCell>
        <mxCell id="-_Fv_5JTiqjVCxgQ4m37-9" value="Bác sĩ&amp;nbsp;" style="rounded=1;arcSize=10;whiteSpace=wrap;html=1;align=center;" parent="1" vertex="1">
          <mxGeometry x="550" y="300" width="100" height="40" as="geometry" />
        </mxCell>
        <mxCell id="-_Fv_5JTiqjVCxgQ4m37-86" value="Bán" style="shape=associativeEntity;whiteSpace=wrap;html=1;align=center;" parent="1" vertex="1">
          <mxGeometry x="300" y="-70" width="100" height="40" as="geometry" />
        </mxCell>
        <mxCell id="-_Fv_5JTiqjVCxgQ4m37-87" value="Bán" style="shape=associativeEntity;whiteSpace=wrap;html=1;align=center;" parent="1" vertex="1">
          <mxGeometry x="300" y="70" width="96" height="45" as="geometry" />
        </mxCell>
        <mxCell id="-_Fv_5JTiqjVCxgQ4m37-88" value="Lưu trữ" style="shape=rhombus;perimeter=rhombusPerimeter;whiteSpace=wrap;html=1;align=center;" parent="1" vertex="1">
          <mxGeometry x="557.5" width="90" height="45" as="geometry" />
        </mxCell>
        <mxCell id="-_Fv_5JTiqjVCxgQ4m37-91" value="" style="endArrow=none;html=1;rounded=0;entryX=0.5;entryY=1;entryDx=0;entryDy=0;exitX=0.5;exitY=0;exitDx=0;exitDy=0;" parent="1" source="-_Fv_5JTiqjVCxgQ4m37-88" target="-_Fv_5JTiqjVCxgQ4m37-3" edge="1">
          <mxGeometry relative="1" as="geometry">
            <mxPoint x="450" y="280" as="sourcePoint" />
            <mxPoint x="610" y="280" as="targetPoint" />
          </mxGeometry>
        </mxCell>
        <mxCell id="-_Fv_5JTiqjVCxgQ4m37-92" value="1" style="resizable=0;html=1;whiteSpace=wrap;align=right;verticalAlign=bottom;" parent="-_Fv_5JTiqjVCxgQ4m37-91" connectable="0" vertex="1">
          <mxGeometry x="1" relative="1" as="geometry">
            <mxPoint x="-10" y="20" as="offset" />
          </mxGeometry>
        </mxCell>
        <mxCell id="-_Fv_5JTiqjVCxgQ4m37-96" value="" style="endArrow=none;html=1;rounded=0;entryX=0.5;entryY=0;entryDx=0;entryDy=0;exitX=0.5;exitY=1;exitDx=0;exitDy=0;" parent="1" source="-_Fv_5JTiqjVCxgQ4m37-93" target="-_Fv_5JTiqjVCxgQ4m37-9" edge="1">
          <mxGeometry relative="1" as="geometry">
            <mxPoint x="390" y="370" as="sourcePoint" />
            <mxPoint x="550" y="370" as="targetPoint" />
          </mxGeometry>
        </mxCell>
        <mxCell id="-_Fv_5JTiqjVCxgQ4m37-97" value="1" style="resizable=0;html=1;whiteSpace=wrap;align=right;verticalAlign=bottom;" parent="-_Fv_5JTiqjVCxgQ4m37-96" connectable="0" vertex="1">
          <mxGeometry x="1" relative="1" as="geometry">
            <mxPoint x="-10" as="offset" />
          </mxGeometry>
        </mxCell>
        <mxCell id="-_Fv_5JTiqjVCxgQ4m37-93" value="Được viết" style="shape=rhombus;perimeter=rhombusPerimeter;whiteSpace=wrap;html=1;align=center;" parent="1" vertex="1">
          <mxGeometry x="555" y="200" width="95" height="55" as="geometry" />
        </mxCell>
        <mxCell id="-_Fv_5JTiqjVCxgQ4m37-100" value="" style="endArrow=none;html=1;rounded=0;entryX=0.5;entryY=1;entryDx=0;entryDy=0;exitX=0.5;exitY=0;exitDx=0;exitDy=0;" parent="1" source="-_Fv_5JTiqjVCxgQ4m37-93" target="-_Fv_5JTiqjVCxgQ4m37-8" edge="1">
          <mxGeometry relative="1" as="geometry">
            <mxPoint x="450" y="280" as="sourcePoint" />
            <mxPoint x="610" y="280" as="targetPoint" />
          </mxGeometry>
        </mxCell>
        <mxCell id="-_Fv_5JTiqjVCxgQ4m37-101" value="1" style="resizable=0;html=1;whiteSpace=wrap;align=right;verticalAlign=bottom;" parent="-_Fv_5JTiqjVCxgQ4m37-100" connectable="0" vertex="1">
          <mxGeometry x="1" relative="1" as="geometry">
            <mxPoint x="-10" y="18" as="offset" />
          </mxGeometry>
        </mxCell>
        <mxCell id="-_Fv_5JTiqjVCxgQ4m37-114" value="Kê đơn" style="shape=rhombus;perimeter=rhombusPerimeter;whiteSpace=wrap;html=1;align=center;" parent="1" vertex="1">
          <mxGeometry x="550" y="410" width="102.5" height="50" as="geometry" />
        </mxCell>
        <mxCell id="-_Fv_5JTiqjVCxgQ4m37-117" value="" style="endArrow=none;html=1;rounded=0;entryX=0.5;entryY=1;entryDx=0;entryDy=0;exitX=0.5;exitY=0;exitDx=0;exitDy=0;" parent="1" source="-_Fv_5JTiqjVCxgQ4m37-114" target="-_Fv_5JTiqjVCxgQ4m37-9" edge="1">
          <mxGeometry relative="1" as="geometry">
            <mxPoint x="380" y="230" as="sourcePoint" />
            <mxPoint x="540" y="230" as="targetPoint" />
          </mxGeometry>
        </mxCell>
        <mxCell id="-_Fv_5JTiqjVCxgQ4m37-118" value="1" style="resizable=0;html=1;whiteSpace=wrap;align=right;verticalAlign=bottom;" parent="-_Fv_5JTiqjVCxgQ4m37-117" connectable="0" vertex="1">
          <mxGeometry x="1" relative="1" as="geometry">
            <mxPoint x="-10" y="19" as="offset" />
          </mxGeometry>
        </mxCell>
        <mxCell id="-_Fv_5JTiqjVCxgQ4m37-122" value="" style="endArrow=none;html=1;rounded=0;exitX=0.5;exitY=1;exitDx=0;exitDy=0;entryX=0.5;entryY=0;entryDx=0;entryDy=0;" parent="1" source="-_Fv_5JTiqjVCxgQ4m37-114" target="-_Fv_5JTiqjVCxgQ4m37-10" edge="1">
          <mxGeometry relative="1" as="geometry">
            <mxPoint x="470" y="370" as="sourcePoint" />
            <mxPoint x="600" y="478" as="targetPoint" />
          </mxGeometry>
        </mxCell>
        <mxCell id="-_Fv_5JTiqjVCxgQ4m37-123" value="N" style="resizable=0;html=1;whiteSpace=wrap;align=right;verticalAlign=bottom;" parent="-_Fv_5JTiqjVCxgQ4m37-122" connectable="0" vertex="1">
          <mxGeometry x="1" relative="1" as="geometry">
            <mxPoint x="-12" y="1" as="offset" />
          </mxGeometry>
        </mxCell>
        <mxCell id="-_Fv_5JTiqjVCxgQ4m37-124" value="Kê đơn&amp;nbsp;" style="shape=rhombus;perimeter=rhombusPerimeter;whiteSpace=wrap;html=1;align=center;" parent="1" vertex="1">
          <mxGeometry x="297.5" y="235" width="105" height="55" as="geometry" />
        </mxCell>
        <mxCell id="-_Fv_5JTiqjVCxgQ4m37-125" value="" style="endArrow=none;html=1;rounded=0;entryX=0;entryY=0.5;entryDx=0;entryDy=0;exitX=1;exitY=0.5;exitDx=0;exitDy=0;" parent="1" source="-_Fv_5JTiqjVCxgQ4m37-124" target="-_Fv_5JTiqjVCxgQ4m37-9" edge="1">
          <mxGeometry relative="1" as="geometry">
            <mxPoint x="440" y="160" as="sourcePoint" />
            <mxPoint x="600" y="160" as="targetPoint" />
          </mxGeometry>
        </mxCell>
        <mxCell id="-_Fv_5JTiqjVCxgQ4m37-126" value="1,1" style="resizable=0;html=1;whiteSpace=wrap;align=right;verticalAlign=bottom;" parent="-_Fv_5JTiqjVCxgQ4m37-125" connectable="0" vertex="1">
          <mxGeometry x="1" relative="1" as="geometry">
            <mxPoint x="-10" y="-15" as="offset" />
          </mxGeometry>
        </mxCell>
        <mxCell id="-_Fv_5JTiqjVCxgQ4m37-127" value="" style="endArrow=none;html=1;rounded=0;entryX=1;entryY=1;entryDx=0;entryDy=0;exitX=0;exitY=0.5;exitDx=0;exitDy=0;" parent="1" source="-_Fv_5JTiqjVCxgQ4m37-124" target="-_Fv_5JTiqjVCxgQ4m37-1" edge="1">
          <mxGeometry relative="1" as="geometry">
            <mxPoint x="440" y="160" as="sourcePoint" />
            <mxPoint x="600" y="160" as="targetPoint" />
          </mxGeometry>
        </mxCell>
        <mxCell id="-_Fv_5JTiqjVCxgQ4m37-128" value="1,N" style="resizable=0;html=1;whiteSpace=wrap;align=right;verticalAlign=bottom;" parent="-_Fv_5JTiqjVCxgQ4m37-127" connectable="0" vertex="1">
          <mxGeometry x="1" relative="1" as="geometry">
            <mxPoint x="50" y="30" as="offset" />
          </mxGeometry>
        </mxCell>
        <mxCell id="-_Fv_5JTiqjVCxgQ4m37-129" value="Nhận" style="shape=rhombus;perimeter=rhombusPerimeter;whiteSpace=wrap;html=1;align=center;" parent="1" vertex="1">
          <mxGeometry x="302.5" y="380" width="100" height="50" as="geometry" />
        </mxCell>
        <mxCell id="-_Fv_5JTiqjVCxgQ4m37-131" value="" style="endArrow=none;html=1;rounded=0;entryX=0.594;entryY=1.015;entryDx=0;entryDy=0;entryPerimeter=0;exitX=0;exitY=0.5;exitDx=0;exitDy=0;" parent="1" source="-_Fv_5JTiqjVCxgQ4m37-129" target="-_Fv_5JTiqjVCxgQ4m37-1" edge="1">
          <mxGeometry relative="1" as="geometry">
            <mxPoint x="380" y="240" as="sourcePoint" />
            <mxPoint x="540" y="240" as="targetPoint" />
          </mxGeometry>
        </mxCell>
        <mxCell id="-_Fv_5JTiqjVCxgQ4m37-132" value="1,N" style="resizable=0;html=1;whiteSpace=wrap;align=right;verticalAlign=bottom;" parent="-_Fv_5JTiqjVCxgQ4m37-131" connectable="0" vertex="1">
          <mxGeometry x="1" relative="1" as="geometry">
            <mxPoint x="30" y="19" as="offset" />
          </mxGeometry>
        </mxCell>
        <mxCell id="-_Fv_5JTiqjVCxgQ4m37-133" value="" style="endArrow=none;html=1;rounded=0;entryX=0;entryY=0;entryDx=0;entryDy=0;exitX=1;exitY=0.5;exitDx=0;exitDy=0;" parent="1" source="-_Fv_5JTiqjVCxgQ4m37-129" target="-_Fv_5JTiqjVCxgQ4m37-10" edge="1">
          <mxGeometry relative="1" as="geometry">
            <mxPoint x="280" y="230" as="sourcePoint" />
            <mxPoint x="440" y="230" as="targetPoint" />
          </mxGeometry>
        </mxCell>
        <mxCell id="-_Fv_5JTiqjVCxgQ4m37-134" value="1" style="resizable=0;html=1;whiteSpace=wrap;align=right;verticalAlign=bottom;" parent="-_Fv_5JTiqjVCxgQ4m37-133" connectable="0" vertex="1">
          <mxGeometry x="1" relative="1" as="geometry">
            <mxPoint x="-10" y="-10" as="offset" />
          </mxGeometry>
        </mxCell>
        <mxCell id="-_Fv_5JTiqjVCxgQ4m37-139" value="Hợp đồng&amp;nbsp;" style="shape=rhombus;perimeter=rhombusPerimeter;whiteSpace=wrap;html=1;align=center;" parent="1" vertex="1">
          <mxGeometry x="-110" y="560" width="100" height="50" as="geometry" />
        </mxCell>
        <mxCell id="-_Fv_5JTiqjVCxgQ4m37-140" value="" style="endArrow=none;html=1;rounded=0;entryX=0.5;entryY=1;entryDx=0;entryDy=0;exitX=0.5;exitY=0;exitDx=0;exitDy=0;" parent="1" source="-_Fv_5JTiqjVCxgQ4m37-139" target="-_Fv_5JTiqjVCxgQ4m37-2" edge="1">
          <mxGeometry relative="1" as="geometry">
            <mxPoint x="200" y="400" as="sourcePoint" />
            <mxPoint x="360" y="400" as="targetPoint" />
          </mxGeometry>
        </mxCell>
        <mxCell id="-_Fv_5JTiqjVCxgQ4m37-141" value="N" style="resizable=0;html=1;whiteSpace=wrap;align=right;verticalAlign=bottom;" parent="-_Fv_5JTiqjVCxgQ4m37-140" connectable="0" vertex="1">
          <mxGeometry x="1" relative="1" as="geometry">
            <mxPoint x="-10" y="20" as="offset" />
          </mxGeometry>
        </mxCell>
        <mxCell id="-_Fv_5JTiqjVCxgQ4m37-142" value="" style="endArrow=none;html=1;rounded=0;entryX=0.25;entryY=0;entryDx=0;entryDy=0;exitX=0.5;exitY=1;exitDx=0;exitDy=0;" parent="1" source="-_Fv_5JTiqjVCxgQ4m37-139" target="-_Fv_5JTiqjVCxgQ4m37-3" edge="1">
          <mxGeometry relative="1" as="geometry">
            <mxPoint x="200" y="400" as="sourcePoint" />
            <mxPoint x="360" y="400" as="targetPoint" />
            <Array as="points">
              <mxPoint x="-210" y="610" />
              <mxPoint x="-210" y="-120" />
              <mxPoint x="575" y="-120" />
            </Array>
          </mxGeometry>
        </mxCell>
        <mxCell id="-_Fv_5JTiqjVCxgQ4m37-143" value="N" style="resizable=0;html=1;whiteSpace=wrap;align=right;verticalAlign=bottom;" parent="-_Fv_5JTiqjVCxgQ4m37-142" connectable="0" vertex="1">
          <mxGeometry x="1" relative="1" as="geometry" />
        </mxCell>
        <mxCell id="-_Fv_5JTiqjVCxgQ4m37-144" value="Dài hạn" style="ellipse;whiteSpace=wrap;html=1;align=center;" parent="1" vertex="1">
          <mxGeometry x="-20" y="520" width="100" height="40" as="geometry" />
        </mxCell>
        <mxCell id="-_Fv_5JTiqjVCxgQ4m37-145" value="" style="endArrow=none;html=1;rounded=0;entryX=0;entryY=1;entryDx=0;entryDy=0;exitX=1;exitY=0.5;exitDx=0;exitDy=0;" parent="1" source="-_Fv_5JTiqjVCxgQ4m37-139" target="-_Fv_5JTiqjVCxgQ4m37-144" edge="1">
          <mxGeometry relative="1" as="geometry">
            <mxPoint x="330" y="110" as="sourcePoint" />
            <mxPoint x="490" y="110" as="targetPoint" />
          </mxGeometry>
        </mxCell>
        <mxCell id="-_Fv_5JTiqjVCxgQ4m37-147" value="Ký hợp đồng&amp;nbsp;" style="shape=rhombus;perimeter=rhombusPerimeter;whiteSpace=wrap;html=1;align=center;" parent="1" vertex="1">
          <mxGeometry x="-380" y="292.5" width="100" height="55" as="geometry" />
        </mxCell>
        <mxCell id="-_Fv_5JTiqjVCxgQ4m37-148" value="" style="endArrow=none;html=1;rounded=0;exitX=0.5;exitY=0;exitDx=0;exitDy=0;entryX=0.75;entryY=0;entryDx=0;entryDy=0;edgeStyle=orthogonalEdgeStyle;" parent="1" source="-_Fv_5JTiqjVCxgQ4m37-147" target="-_Fv_5JTiqjVCxgQ4m37-3" edge="1">
          <mxGeometry relative="1" as="geometry">
            <mxPoint x="50" y="110" as="sourcePoint" />
            <mxPoint x="-320" y="-210" as="targetPoint" />
            <Array as="points">
              <mxPoint x="-330" y="-150" />
              <mxPoint x="625" y="-150" />
            </Array>
          </mxGeometry>
        </mxCell>
        <mxCell id="-_Fv_5JTiqjVCxgQ4m37-149" value="N" style="resizable=0;html=1;whiteSpace=wrap;align=right;verticalAlign=bottom;" parent="-_Fv_5JTiqjVCxgQ4m37-148" connectable="0" vertex="1">
          <mxGeometry x="1" relative="1" as="geometry">
            <mxPoint x="-10" y="9" as="offset" />
          </mxGeometry>
        </mxCell>
        <mxCell id="-_Fv_5JTiqjVCxgQ4m37-150" value="" style="endArrow=none;html=1;rounded=0;entryX=1;entryY=0.5;entryDx=0;entryDy=0;exitX=0.5;exitY=1;exitDx=0;exitDy=0;edgeStyle=orthogonalEdgeStyle;" parent="1" source="-_Fv_5JTiqjVCxgQ4m37-147" target="-_Fv_5JTiqjVCxgQ4m37-2" edge="1">
          <mxGeometry relative="1" as="geometry">
            <mxPoint x="150" y="450" as="sourcePoint" />
            <mxPoint x="310" y="450" as="targetPoint" />
            <Array as="points">
              <mxPoint x="-330" y="740" />
              <mxPoint x="110" y="740" />
              <mxPoint x="110" y="430" />
            </Array>
          </mxGeometry>
        </mxCell>
        <mxCell id="-_Fv_5JTiqjVCxgQ4m37-151" value="N" style="resizable=0;html=1;whiteSpace=wrap;align=right;verticalAlign=bottom;" parent="-_Fv_5JTiqjVCxgQ4m37-150" connectable="0" vertex="1">
          <mxGeometry x="1" relative="1" as="geometry">
            <mxPoint x="20" as="offset" />
          </mxGeometry>
        </mxCell>
        <mxCell id="-_Fv_5JTiqjVCxgQ4m37-153" value="Số hợp đồng" style="ellipse;whiteSpace=wrap;html=1;align=center;" parent="1" vertex="1">
          <mxGeometry y="620" width="100" height="40" as="geometry" />
        </mxCell>
        <mxCell id="-_Fv_5JTiqjVCxgQ4m37-154" value="" style="endArrow=none;html=1;rounded=0;exitX=1;exitY=0.5;exitDx=0;exitDy=0;entryX=0;entryY=0.5;entryDx=0;entryDy=0;" parent="1" source="-_Fv_5JTiqjVCxgQ4m37-139" target="-_Fv_5JTiqjVCxgQ4m37-153" edge="1">
          <mxGeometry relative="1" as="geometry">
            <mxPoint x="150" y="440" as="sourcePoint" />
            <mxPoint x="310" y="440" as="targetPoint" />
          </mxGeometry>
        </mxCell>
        <mxCell id="-_Fv_5JTiqjVCxgQ4m37-155" value="Số hợp đồng" style="ellipse;whiteSpace=wrap;html=1;align=center;" parent="1" vertex="1">
          <mxGeometry x="-520" y="300" width="100" height="40" as="geometry" />
        </mxCell>
        <mxCell id="-_Fv_5JTiqjVCxgQ4m37-156" value="" style="endArrow=none;html=1;rounded=0;exitX=0;exitY=0.5;exitDx=0;exitDy=0;entryX=1;entryY=0.5;entryDx=0;entryDy=0;" parent="1" source="-_Fv_5JTiqjVCxgQ4m37-147" target="-_Fv_5JTiqjVCxgQ4m37-155" edge="1">
          <mxGeometry relative="1" as="geometry">
            <mxPoint y="440" as="sourcePoint" />
            <mxPoint x="160" y="440" as="targetPoint" />
          </mxGeometry>
        </mxCell>
      </root>
    </mxGraphModel>
  </diagram>
</mxfile>
